# xmcd
#
# Track frame offsets:
#  150
#  12392
#  24609
#  41801
#  54914
#  68196
#  83429
#  95431
#  111686
#  129822
#  145236
#  160596
#  175245
#  186386
#  201887
#  212353
#  223935
#  239988
#  254357
#  272129
#  286469
#  298966
#
# Disc length: 4157 seconds
#
# Revision: 4
# Processed by: cddbd v1.5.2PL0 Copyright (c) Steve Scherf et al.
# Submitted via: AltoMP3_Maker 3.0
#
DISCID=59103b16
DTITLE=Various Artist - 22ct. Country Gold
DYEAR=2002
DGENRE=country
TTITLE0=Wynette, Tammy - Stand By Your Man
TTITLE1=Cline, Patsy - Crazy
TTITLE2=Dr Hook And The Medicine Show - Sylvia's Mother
TTITLE3=Young, Faron - It's Four In The Morning
TTITLE4=Anderson, Lynn - Rose Garden
TTITLE5=Williams, Don - I Recall A Gypsy Woman
TTITLE6=Parton, Dolly - Jolene
TTITLE7=Charlie Daniels Band - The Devil Went Down To Georgia
TTITLE8=Cash, Johnny - One Piece At A Time
TTITLE9=Axton, Hoyt - Della And The Dealer
TTITLE10=Cyrus, Billy Ray - Achy Breaky Heart
TTITLE11=Wynonna - Girls With Guitars
TTITLE12=Jackson, Alan - Chattanoochee
TTITLE13=McBride, Martina - Independence Day
TTITLE14=Gayle, Crystal - Crying In The Rain
TTITLE15=Rich, Charlie - I'm So Lonesome I Could Cry
TTITLE16=Spears, Billie Jo - Blanket On The Ground
TTITLE17=Campbell, Glen - Rhinestone Cowboy
TTITLE18=Greenwood, Lee - The Wind Beneath My Wings
TTITLE19=Bellamy Brothers - If I Said You Had A Beautiful Body (Would You Hol
TTITLE20=Fender, Freddy - Squeeze Box
TTITLE21=Pride, Charley - Crystal Chandeliers
EXTD=
EXTT0=
EXTT1=
EXTT2=
EXTT3=
EXTT4=
EXTT5=
EXTT6=
EXTT7=
EXTT8=
EXTT9=
EXTT10=
EXTT11=
EXTT12=
EXTT13=
EXTT14=
EXTT15=
EXTT16=
EXTT17=
EXTT18=
EXTT19=
EXTT20=
EXTT21=
PLAYORDER=
